<svg width="30" height="31" viewBox="0 0 30 31" fill="none" xmlns="http://www.w3.org/2000/svg">
<mask id="mask0_0_621" style="mask-type:luminance" maskUnits="userSpaceOnUse" x="0" y="0" width="30" height="31">
<path d="M0 0.69043H29.6192V30.3096H0V0.69043Z" fill="white"/>
</mask>
<g mask="url(#mask0_0_621)">
<path d="M23.4448 11.7976L24.9872 8.404L28.3816 6.86158L24.9872 5.31842L23.4448 1.9248L21.9024 5.31842L18.508 6.86158L21.9024 8.404L23.4448 11.7976ZM14.1888 12.4152L11.1032 5.6272L8.01837 12.4152L1.2304 15.5L8.01837 18.5856L11.1032 25.3736L14.1888 18.5856L20.9768 15.5L14.1888 12.4152ZM23.4448 19.2024L21.9024 22.5968L18.508 24.1392L21.9024 25.6816L23.4448 29.076L24.9872 25.6816L28.3816 24.1392L24.9872 22.5968L23.4448 19.2024Z" fill="black"/>
</g>
</svg>
